<svg version="1.0" xmlns="http://www.w3.org/2000/svg"
 width="874.000000pt" height="815.000000pt" viewBox="0 0 874.000000 815.000000"
 preserveAspectRatio="xMidYMid meet">

<g transform="translate(0.000000,815.000000) scale(0.100000,-0.100000)"
fill="#000000" stroke="none">
<path d="M359 7620 c-41 -12 -75 -38 -103 -79 -25 -35 -26 -43 -24 -157 l1
-119 7 126 c5 110 9 129 28 149 12 13 22 27 22 31 0 4 18 14 40 23 37 15 389
16 4046 16 2947 0 4011 -3 4027 -11 34 -18 68 -51 80 -79 6 -14 14 -77 17
-140 l6 -115 1 115 c1 100 -1 120 -20 154 -27 48 -61 74 -113 86 -48 12 -7978
12 -8015 0z"/>
<path d="M10 7225 l0 -35 110 0 110 0 0 -35 0 -34 -107 -3 -108 -3 0 -390 0
-390 90 -2 c50 -1 98 -2 107 -3 17 0 18 -148 20 -2847 l3 -2848 28 -37 c15
-20 45 -44 65 -55 36 -17 173 -18 4043 -18 3541 0 4009 2 4035 15 47 24 72 50
88 92 14 34 16 331 16 2868 l0 2830 88 1 c48 1 96 2 107 3 20 1 20 8 20 391
l0 390 -4242 3 -4243 2 0 35 0 35 4127 -2 4128 -3 6 -30 7 -30 1 33 1 32 110
0 110 0 0 35 0 35 -4360 0 -4360 0 0 -35z m2140 -370 l0 -65 -20 20 c-18 18
-33 20 -170 20 -139 0 -151 -1 -162 -20 -7 -11 -16 -20 -20 -20 -10 0 -11 114
-1 123 3 4 89 7 190 7 l183 0 0 -65z m295 55 c-3 -5 -14 -10 -25 -10 -25 0
-30 -19 -30 -111 l0 -79 80 0 81 0 -3 93 c-3 87 -4 92 -25 95 -13 2 -23 8 -23
13 0 5 49 9 110 9 67 0 110 -4 110 -10 0 -5 -9 -10 -20 -10 -33 0 -40 -32 -40
-197 0 -204 5 -233 37 -233 14 0 21 -4 18 -10 -3 -6 -52 -10 -111 -10 -63 0
-104 4 -104 10 0 6 11 10 25 10 25 0 25 1 27 90 0 50 1 96 2 103 1 8 -23 13
-81 15 l-83 3 0 -90 c0 -103 5 -121 32 -121 10 0 16 -4 13 -10 -3 -6 -48 -10
-100 -10 -52 0 -97 4 -100 10 -3 6 3 10 14 10 29 0 32 21 29 230 -3 181 -3
185 -25 195 -44 19 -22 25 88 25 71 0 108 -4 104 -10z m633 -14 c48 -25 74
-72 67 -121 -10 -68 -52 -98 -152 -110 l-63 -7 0 -78 c0 -91 5 -110 31 -110
10 0 19 -4 19 -10 0 -13 -197 -13 -205 -1 -3 5 5 11 17 13 l23 3 0 210 0 210
-22 3 c-13 2 -23 8 -23 14 0 19 269 5 308 -16z m465 11 c154 -65 192 -270 74
-393 -35 -37 -53 -47 -108 -60 -123 -30 -233 15 -285 118 -23 45 -26 61 -22
127 3 67 7 82 36 124 47 67 106 96 200 97 40 0 87 -6 105 -13z m417 3 c0 -5
-8 -10 -18 -10 -39 0 -42 -17 -42 -215 0 -200 3 -215 45 -215 16 0 17 -2 5
-10 -19 -12 -210 -13 -210 -1 0 5 10 11 23 13 l22 3 0 210 0 210 -22 3 c-13 2
-23 8 -23 13 0 5 49 9 110 9 67 0 110 -4 110 -10z m440 0 c0 -5 -9 -10 -20
-10 -26 0 -32 -26 -28 -124 l3 -78 97 76 c53 42 99 83 102 92 8 20 -1 34 -20
34 -8 0 -14 5 -14 10 0 6 33 10 80 10 47 0 80 -4 80 -10 0 -5 -7 -10 -15 -10
-14 0 -197 -138 -208 -157 -5 -8 75 -113 165 -215 41 -48 55 -58 81 -58 25 0
37 7 54 33 18 27 97 197 172 371 13 30 25 46 31 40 5 -5 36 -72 70 -149 107
-245 129 -287 150 -292 11 -3 17 -9 14 -14 -7 -12 -191 -11 -199 1 -3 6 1 10
10 10 25 0 27 23 5 73 l-21 47 -79 0 -80 0 -15 -37 c-21 -50 -13 -83 21 -83
14 0 23 -4 19 -10 -4 -6 -78 -10 -190 -10 -112 0 -186 4 -190 10 -3 6 1 10 9
10 9 0 16 8 16 18 0 24 -128 184 -141 177 -10 -7 -13 -154 -3 -179 3 -9 15
-16 25 -16 10 0 19 -4 19 -10 0 -6 -41 -10 -104 -10 -59 0 -108 4 -111 10 -3
6 5 10 18 10 14 0 28 7 31 16 3 9 6 100 6 203 0 193 -3 211 -42 211 -10 0 -18
5 -18 10 0 6 43 10 110 10 67 0 110 -4 110 -10z m1077 1 c93 -14 133 -52 133
-126 0 -24 -9 -45 -30 -69 -31 -35 -44 -40 -139 -52 l-53 -6 5 -83 c5 -93 10
-105 38 -105 11 0 17 -4 14 -10 -3 -6 -50 -10 -105 -10 -55 0 -102 4 -105 10
-3 6 5 10 18 10 34 0 37 16 37 218 0 180 -6 212 -40 212 -11 0 -20 5 -20 10 0
13 162 13 247 1z m683 0 c0 -5 -12 -11 -27 -13 l-28 -3 0 -210 0 -210 28 -3
c15 -2 27 -8 27 -13 0 -12 -217 -12 -225 1 -3 6 5 10 19 10 22 0 26 5 31 43 3
23 5 116 3 207 l-3 165 -80 0 -80 0 -3 -175 c-4 -218 0 -240 36 -240 21 0 24
-2 12 -10 -19 -12 -210 -13 -210 -1 0 5 10 11 23 13 l22 3 0 210 0 210 -22 3
c-13 2 -23 8 -23 13 0 5 102 9 250 9 148 0 250 -4 250 -9z m427 -23 c21 -14
52 -45 68 -68 26 -37 30 -54 33 -119 3 -68 1 -82 -25 -131 -36 -69 -89 -107
-168 -121 -126 -24 -244 44 -279 160 -9 30 -16 64 -16 76 0 47 32 124 68 164
50 56 97 72 199 68 67 -3 88 -8 120 -29z m373 22 c0 -5 -9 -10 -20 -10 -28 0
-31 -22 -28 -235 l3 -190 28 -3 c15 -2 25 -8 22 -13 -8 -12 -212 -12 -220 1
-3 6 5 10 18 10 14 0 28 7 31 16 3 9 6 100 6 203 0 193 -3 211 -42 211 -10 0
-18 5 -18 10 0 6 43 10 110 10 67 0 110 -4 110 -10z m-4999 -180 c82 0 93 2
110 23 18 22 18 21 18 -63 0 -80 -1 -84 -16 -62 -14 20 -23 22 -104 22 -76 0
-92 -3 -109 -20 l-20 -20 0 82 c0 77 1 81 16 60 14 -20 23 -22 105 -22z m199
-200 l0 -80 -187 0 c-104 0 -192 4 -198 8 -6 4 -8 35 -4 77 3 39 6 60 7 47 3
-34 38 -42 185 -42 161 0 176 4 184 41 9 48 13 33 13 -51z m6338 -3044 l-3
-2845 -21 -27 c-11 -15 -33 -37 -48 -48 l-27 -21 -4015 -3 c-3419 -2 -4019 0
-4048 12 -18 8 -46 31 -62 52 l-29 37 -3 2844 -2 2843 4130 0 4130 0 -2 -2844z"/>
<path d="M2930 6790 l0 -100 28 0 c46 0 76 40 75 101 -1 60 -30 99 -75 99
l-28 0 0 -100z"/>
<path d="M3373 6870 c-42 -41 -57 -108 -51 -221 4 -67 11 -96 28 -124 55 -90
169 -66 199 41 14 52 14 197 -1 246 -26 86 -116 116 -175 58z"/>
<path d="M4877 6690 l-36 -75 66 -3 c36 -2 67 -1 69 1 2 2 -11 37 -30 78 l-34
74 -35 -75z"/>
<path d="M5397 6883 c-4 -3 -7 -48 -7 -100 0 -86 2 -93 20 -93 10 0 30 5 43
11 62 28 62 150 0 178 -27 13 -47 14 -56 4z"/>
<path d="M6386 6875 c-43 -40 -56 -84 -56 -192 1 -145 38 -213 118 -213 41 0
78 24 100 64 13 24 17 57 17 151 0 109 -2 124 -24 158 -38 62 -108 76 -155 32z"/>
<path d="M5496 6258 c-13 -18 -16 -55 -16 -196 0 -199 -14 -312 -39 -312 -41
0 -82 43 -148 155 -51 87 -88 125 -155 160 -44 22 -58 25 -80 17 -35 -14 -28
-41 22 -85 30 -26 42 -48 59 -103 11 -39 41 -102 66 -139 25 -38 45 -74 45
-81 0 -49 -189 -20 -292 45 -74 47 -82 45 -86 -17 l-3 -53 81 -83 c91 -94 109
-136 71 -170 -16 -15 -32 -18 -86 -14 l-65 4 0 -73 c0 -72 0 -73 33 -89 53
-27 77 -54 77 -88 -1 -41 -18 -62 -74 -86 l-46 -21 0 -64 c0 -36 3 -65 8 -65
4 1 26 5 50 9 26 5 59 4 83 -1 33 -9 39 -14 39 -38 0 -32 -73 -106 -139 -139
l-41 -21 0 -94 c0 -67 4 -96 13 -99 27 -9 77 13 161 71 110 77 126 79 126 16
0 -54 -5 -64 -81 -170 -67 -92 -114 -189 -124 -255 -15 -98 37 -72 165 82 78
94 242 239 270 239 19 0 10 -103 -16 -178 -16 -47 -27 -106 -31 -161 l-5 -86
41 -62 c31 -48 44 -61 58 -56 31 10 43 35 43 90 0 61 17 109 50 138 32 29 45
60 65 148 33 151 78 79 125 -203 24 -142 79 -253 108 -218 25 31 37 120 51
367 5 84 14 158 19 163 17 17 56 1 105 -44 37 -35 49 -55 63 -106 14 -52 28
-74 78 -127 l61 -65 87 0 c75 0 89 3 97 18 8 15 3 25 -26 53 -68 65 -93 108
-93 160 0 54 -24 123 -53 154 -30 32 -59 84 -53 94 10 16 57 -3 152 -61 87
-54 157 -94 242 -138 58 -30 127 -38 135 -15 4 9 0 29 -8 46 -14 27 -20 29
-78 31 -57 1 -80 3 -114 7 -9 1 -13 26 -13 91 l0 90 -80 77 c-72 69 -80 80
-80 114 0 35 3 39 33 44 21 4 48 1 72 -9 48 -20 57 -20 83 2 11 9 43 35 71 57
28 22 51 43 51 46 0 10 -60 46 -155 94 -47 23 -80 46 -80 55 0 21 76 54 180
78 50 11 103 25 119 32 28 10 28 11 11 30 -10 11 -22 20 -26 20 -5 0 -31 14
-57 30 -41 25 -60 30 -113 30 -108 0 -179 29 -179 73 0 31 62 85 114 99 l47
12 -3 101 c-3 114 -2 112 -94 100 -42 -5 -65 -15 -105 -46 -36 -29 -58 -39
-77 -37 -56 6 -28 97 95 301 62 105 123 219 123 231 0 3 -11 6 -24 6 -32 0
-98 -54 -231 -190 -152 -155 -181 -180 -210 -180 -41 0 -41 37 -1 138 38 95
48 189 25 249 -16 44 -59 83 -91 83 -27 0 -28 -2 -28 -52 0 -76 -22 -149 -61
-203 -19 -25 -44 -59 -56 -76 -12 -16 -24 -47 -28 -68 -3 -22 -12 -47 -19 -57
-12 -16 -16 -13 -39 27 -30 53 -46 99 -87 255 -47 182 -57 201 -84 162z m310
-886 c180 -93 213 -341 63 -476 -143 -129 -367 -85 -452 88 -38 76 -38 176 -1
250 35 70 69 103 139 138 54 27 67 29 136 25 49 -3 90 -12 115 -25z"/>
<path d="M1043 5823 l-163 -3 0 -620 0 -619 168 -3 c92 -2 173 -1 180 1 9 2
12 64 12 267 l0 264 300 0 c165 0 303 1 308 3 4 1 8 -119 10 -268 l2 -270 195
0 195 0 0 625 0 625 -195 0 -195 0 0 -227 0 -228 -310 0 -310 0 0 224 c0 195
-2 225 -16 230 -9 3 -16 5 -17 4 -1 -1 -75 -4 -164 -5z"/>
<path d="M3315 5822 l-220 -2 -45 -82 c-73 -133 -97 -176 -172 -313 -39 -71
-99 -179 -134 -240 -34 -60 -114 -204 -177 -320 -63 -115 -124 -227 -137 -247
l-22 -38 234 0 233 1 214 434 c118 239 218 435 221 435 8 0 -6 30 190 -395 18
-38 46 -99 62 -135 17 -36 42 -90 55 -120 14 -30 43 -94 66 -142 l41 -88 223
0 c123 0 223 3 223 8 0 12 -604 1208 -620 1228 -14 18 -30 19 -235 16z"/>
<path d="M4440 5200 l0 -625 190 0 189 0 3 160 c2 88 1 369 -2 625 l-5 465
-188 0 -187 0 0 -625z"/>
<path d="M6568 5825 c-5 -5 -8 -77 -8 -161 l0 -152 58 -42 c31 -23 121 -86
200 -141 78 -55 142 -104 142 -109 0 -5 -6 -13 -14 -17 -8 -4 -34 -26 -58 -48
-23 -22 -70 -63 -103 -90 -33 -28 -62 -52 -65 -55 -3 -3 -42 -36 -87 -74 l-83
-68 0 -154 0 -154 638 0 c351 0 641 2 643 4 2 2 3 54 1 115 l-3 111 -371 2
-371 3 164 154 c329 309 304 283 282 301 -11 8 -30 23 -44 32 -47 34 -364 269
-389 288 -25 19 -22 19 368 19 l393 1 -3 115 -3 115 -640 6 c-352 4 -643 3
-647 -1z"/>
<path d="M7042 3902 c-34 -5 -87 -64 -107 -119 -9 -26 -27 -105 -39 -176 l-21
-127 -69 157 c-38 87 -76 180 -85 207 l-15 48 -57 -4 c-43 -3 -66 -11 -93 -32
-40 -30 -86 -111 -86 -151 0 -25 1 -25 24 -10 15 10 28 33 35 60 14 56 47 93
89 101 40 8 40 17 3 -209 -31 -188 -51 -242 -96 -253 -31 -8 -65 4 -87 30 -18
21 -18 21 -33 1 -23 -29 -14 -49 28 -62 52 -17 94 -6 137 37 47 47 76 123 97
252 9 54 18 96 21 94 7 -8 151 -328 162 -363 8 -22 18 -33 31 -33 10 0 19 3
19 8 0 4 5 34 10 67 5 33 16 107 25 165 24 159 44 232 67 257 24 25 57 30 76
11 10 -10 15 -10 22 2 22 34 -1 50 -58 42z"/>
<path d="M5096 3880 c-70 -21 -125 -83 -141 -157 -7 -36 2 -41 36 -23 11 6 19
21 19 36 0 61 56 124 110 124 18 0 21 -4 17 -22 -3 -13 -15 -88 -27 -168 -29
-188 -47 -244 -80 -248 -24 -4 -70 -38 -70 -53 0 -4 39 -10 88 -14 263 -21
410 96 415 330 2 77 -12 134 -38 161 -33 34 -75 44 -187 43 -62 0 -126 -5
-142 -9z m239 -36 c61 -40 78 -143 46 -267 -25 -97 -68 -161 -118 -178 -34
-11 -178 -8 -190 5 -3 3 8 21 25 41 38 43 54 97 83 284 l22 143 53 -5 c29 -3
64 -13 79 -23z"/>
<path d="M7524 3863 c-22 -4 -34 -37 -34 -89 0 -18 -6 -23 -32 -26 -39 -4 -40
-22 -3 -26 23 -3 26 -7 21 -30 -24 -120 -39 -239 -37 -295 2 -61 83 -58 137 6
31 37 24 46 -14 18 -34 -24 -58 -27 -65 -8 -3 9 29 239 42 305 1 1 21 2 45 2
26 0 48 6 56 15 11 13 5 15 -40 15 l-53 0 6 60 c4 33 3 59 -1 59 -4 -1 -17 -4
-28 -6z"/>
<path d="M5549 3736 c-33 -23 -69 -66 -69 -83 0 -4 18 10 39 31 53 52 65 42
57 -43 -6 -67 -30 -216 -42 -259 -6 -22 -4 -23 27 -20 33 3 34 4 44 68 20 122
122 277 173 264 23 -7 60 42 44 58 -32 32 -117 -39 -165 -134 l-26 -53 6 88
c5 70 3 91 -8 98 -23 14 -42 11 -80 -15z"/>
<path d="M5865 3742 c-21 -18 -55 -66 -55 -79 0 -3 13 6 28 21 23 21 31 24 40
14 6 -7 17 -77 26 -156 9 -79 21 -152 26 -162 23 -44 62 -13 115 90 19 36 34
61 34 55 1 -18 -39 -219 -55 -271 -22 -76 -66 -106 -118 -83 -24 11 -30 10
-49 -10 -19 -19 -20 -23 -7 -32 19 -12 98 -2 127 17 77 49 113 131 163 375 22
108 43 204 46 213 6 15 1 17 -27 14 -32 -3 -34 -5 -45 -60 -11 -59 -85 -218
-111 -240 -21 -17 -30 2 -38 86 -8 95 -25 186 -36 208 -12 23 -38 22 -64 0z"/>
<path d="M7054 3741 c-32 -20 -77 -74 -68 -83 2 -3 20 10 38 28 63 63 69 46
45 -106 -25 -157 -25 -206 2 -220 46 -25 96 18 158 135 18 33 29 51 26 40 -4
-11 -9 -52 -12 -90 -5 -57 -3 -73 11 -84 23 -20 59 -6 107 39 51 48 45 66 -6
21 -20 -17 -40 -31 -45 -31 -15 0 -12 47 15 206 14 81 25 149 25 151 0 2 -13
3 -29 3 -31 0 -31 0 -47 -95 -12 -77 -115 -245 -150 -245 -18 0 -18 41 1 150
20 114 20 186 -1 194 -25 9 -37 7 -70 -13z"/>
<path d="M7774 3751 c-29 -13 -74 -68 -75 -94 -3 -45 4 -62 47 -126 25 -38 44
-77 44 -93 0 -46 -63 -64 -108 -32 -22 15 -24 15 -37 -2 -19 -25 -14 -36 19
-47 60 -20 140 20 166 83 16 39 9 65 -41 139 -51 77 -56 119 -16 139 35 17 65
7 73 -24 3 -13 10 -24 14 -24 7 0 23 71 17 77 -9 8 -85 11 -103 4z"/>
<path d="M1732 2762 c-13 -2 -26 -11 -29 -20 -3 -9 -28 -75 -56 -145 -49 -127
-50 -128 -80 -125 -36 4 -35 1 -95 158 -47 121 -49 125 -80 128 -18 2 -32 2
-32 -1 0 -7 -82 -222 -97 -254 -8 -18 -22 -33 -29 -33 -8 0 -14 -7 -14 -15 0
-12 13 -15 60 -15 47 0 60 3 60 15 0 8 -7 15 -15 15 -15 0 -20 26 -9 54 5 12
20 16 59 16 49 0 53 -2 60 -27 4 -19 2 -31 -9 -39 -38 -28 -16 -34 119 -34
136 0 158 6 119 35 -15 11 -14 20 17 108 18 53 37 93 40 89 8 -8 69 -181 69
-194 0 -4 -7 -8 -15 -8 -8 0 -15 -7 -15 -15 0 -12 14 -15 70 -15 53 0 70 3 70
14 0 8 -6 16 -13 19 -7 3 -37 67 -66 143 -30 77 -57 141 -60 145 -3 3 -16 3
-29 1z m-329 -164 c2 -18 -4 -22 -32 -25 -32 -3 -33 -2 -28 25 3 15 11 41 18
57 l11 30 14 -33 c8 -18 15 -42 17 -54z"/>
<path d="M5415 2756 c-70 -31 -104 -109 -91 -201 8 -53 38 -93 82 -111 138
-58 250 69 202 228 -22 74 -121 117 -193 84z m92 -44 c34 -21 53 -123 34 -175
-24 -61 -84 -77 -120 -31 -35 45 -27 180 13 206 14 10 58 10 73 0z"/>
<path d="M5420 2606 c0 -18 35 -29 76 -24 18 2 29 9 29 18 0 11 -14 16 -52 18
-42 2 -53 0 -53 -12z"/>
<path d="M6083 2759 c-85 -25 -128 -159 -82 -255 43 -89 184 -99 246 -17 25
33 28 45 28 114 0 63 -4 83 -21 106 -36 49 -108 71 -171 52z m95 -60 c52 -55
36 -200 -22 -215 -67 -16 -96 19 -96 117 0 59 12 96 34 111 21 15 65 8 84 -13z"/>
<path d="M6464 2759 c-12 -4 -24 -19 -28 -33 -3 -14 -11 -38 -18 -53 -6 -15
-26 -64 -42 -108 -22 -55 -38 -83 -54 -90 -36 -16 -20 -30 38 -33 56 -3 93 14
52 24 -12 4 -22 10 -22 15 0 26 63 200 69 193 7 -8 71 -187 71 -199 0 -3 -7
-5 -15 -5 -8 0 -15 -7 -15 -15 0 -12 14 -15 70 -15 53 0 70 3 70 14 0 8 -6 16
-13 19 -8 3 -38 68 -68 146 -30 77 -58 142 -64 145 -5 2 -20 0 -31 -5z"/>
<path d="M6766 2756 c-40 -15 -46 -21 -71 -67 -38 -71 -26 -180 26 -223 61
-52 168 -42 215 20 36 46 45 151 17 203 -35 67 -112 94 -187 67z m103 -55 c23
-23 36 -96 27 -146 -14 -73 -84 -101 -125 -49 -17 21 -21 41 -21 94 0 53 4 73
21 94 25 32 70 35 98 7z"/>
<path d="M7406 2760 c-65 -20 -96 -76 -96 -170 0 -87 28 -132 93 -151 48 -14
76 -11 122 11 53 26 75 70 75 153 0 67 -20 114 -62 141 -30 19 -95 28 -132 16z
m95 -59 c22 -17 24 -27 24 -101 0 -74 -2 -84 -24 -101 -31 -25 -73 -24 -97 2
-15 17 -19 36 -19 99 0 63 4 82 19 99 24 26 66 27 97 2z"/>
<path d="M900 2745 c0 -9 7 -18 15 -21 16 -7 95 -120 95 -137 0 -17 -71 -98
-96 -109 -47 -22 -29 -38 41 -38 51 0 65 3 65 15 0 8 -7 15 -15 15 -20 0 -19
6 7 48 l21 35 24 -29 c24 -30 30 -54 13 -54 -5 0 -10 -7 -10 -15 0 -12 15 -15
75 -15 58 0 75 3 75 14 0 8 -9 17 -19 21 -11 3 -38 35 -62 71 -37 57 -40 68
-30 87 18 33 55 73 80 86 11 7 21 18 21 26 0 12 -15 15 -65 15 -66 0 -81 -11
-49 -35 15 -11 15 -14 -1 -38 -9 -15 -20 -27 -24 -27 -10 0 -47 52 -55 78 -6
19 -14 22 -57 22 -37 0 -49 -4 -49 -15z"/>
<path d="M1930 2746 c0 -8 7 -16 15 -20 12 -4 15 -29 15 -131 0 -118 -1 -125
-20 -125 -11 0 -20 -7 -20 -15 0 -12 20 -15 116 -15 117 0 117 0 145 30 38 39
38 80 0 122 l-29 32 21 28 c25 34 15 76 -23 95 -37 19 -220 18 -220 -1z m182
-49 c15 -24 7 -46 -22 -59 -38 -17 -38 -35 0 -43 50 -11 65 -60 30 -95 -19
-19 -79 -28 -81 -12 0 4 -3 54 -5 111 -3 76 0 107 9 113 15 10 59 0 69 -15z"/>
<path d="M2329 2619 c-37 -101 -58 -143 -71 -147 -10 -2 -18 -11 -18 -18 0
-10 16 -14 60 -14 44 0 60 4 60 14 0 7 -9 16 -20 19 -17 4 -18 9 -9 36 10 29
14 31 60 31 38 0 51 -4 59 -19 15 -28 12 -51 -5 -51 -8 0 -15 -7 -15 -15 0
-12 14 -15 70 -15 56 0 70 3 70 15 0 8 -4 15 -8 15 -5 0 -26 44 -47 98 -75
193 -75 192 -105 192 -26 0 -30 -7 -81 -141z m94 -22 c2 -18 -3 -22 -28 -22
-28 0 -30 2 -27 33 1 19 8 44 14 55 11 21 12 21 25 -11 7 -18 14 -43 16 -55z"/>
<path d="M2579 2738 c-1 -13 -2 -34 -3 -47 -2 -36 19 -36 34 -1 10 25 18 30
46 30 l34 0 0 -125 c0 -118 -1 -125 -20 -125 -11 0 -20 -7 -20 -15 0 -12 15
-15 75 -15 57 0 75 3 75 14 0 7 -9 16 -20 19 -19 5 -20 14 -20 126 l0 121 34
0 c28 0 36 -5 46 -30 18 -42 35 -32 35 21 l0 44 -147 3 c-148 3 -148 3 -149
-20z"/>
<path d="M2927 2753 c-11 -10 -8 -93 3 -93 6 0 15 11 21 24 8 17 22 26 52 30
60 10 65 -5 24 -63 -95 -132 -127 -181 -127 -195 0 -14 19 -16 129 -16 72 0
132 3 134 8 10 16 11 86 2 89 -6 2 -19 -10 -28 -27 -17 -27 -23 -30 -71 -30
-29 0 -56 3 -59 6 -5 6 75 130 145 224 11 16 17 33 14 39 -8 12 -228 16 -239
4z"/>
<path d="M3210 2746 c0 -7 9 -16 20 -19 19 -5 20 -14 20 -131 0 -119 -1 -126
-20 -126 -11 0 -20 -7 -20 -15 0 -12 15 -15 75 -15 79 0 96 12 54 38 -16 11
-20 21 -17 60 l3 47 63 3 62 3 0 -61 c0 -54 -2 -60 -21 -60 -12 0 -19 -5 -16
-12 5 -17 149 -18 154 -2 2 7 -8 14 -22 18 l-25 6 0 118 c0 110 1 118 21 127
40 19 24 30 -45 33 -74 3 -102 -8 -67 -27 17 -9 21 -21 21 -56 l0 -45 -65 0
-65 0 0 44 c0 36 4 46 20 51 11 3 20 13 20 21 0 11 -17 14 -75 14 -57 0 -75
-3 -75 -14z"/>
<path d="M3607 2746 c-3 -8 17 -46 45 -85 43 -63 48 -74 37 -89 -8 -9 -31 -38
-51 -63 -21 -25 -38 -51 -38 -57 0 -9 38 -12 135 -12 l135 0 0 40 c0 22 0 43
1 47 2 20 -18 9 -33 -17 -16 -29 -20 -30 -88 -30 -38 0 -70 3 -70 6 0 3 13 23
28 43 66 84 67 87 40 124 -44 58 -44 57 15 57 48 0 55 -3 65 -25 19 -41 33
-30 30 23 l-3 47 -121 3 c-98 2 -123 0 -127 -12z"/>
<path d="M4070 2744 c0 -9 9 -18 20 -21 19 -5 20 -12 18 -127 -3 -117 -4 -121
-25 -124 -13 -2 -23 -10 -23 -18 0 -11 16 -14 70 -14 56 0 70 3 70 15 0 8 -9
15 -20 15 -28 0 -31 13 -28 115 l3 89 72 -95 c108 -142 108 -141 129 -137 17
3 19 14 22 141 3 136 3 137 27 143 14 3 25 13 25 21 0 11 -14 13 -67 11 -68
-3 -95 -20 -48 -32 24 -6 25 -9 25 -87 0 -44 -4 -78 -9 -75 -5 3 -41 48 -80
101 l-72 95 -55 0 c-43 0 -54 -3 -54 -16z"/>
<path d="M4477 2753 c-12 -11 -8 -21 13 -26 19 -5 20 -14 20 -131 0 -119 -1
-126 -20 -126 -11 0 -20 -7 -20 -15 0 -12 16 -15 80 -15 64 0 80 3 80 15 0 8
-9 15 -19 15 -25 0 -27 8 -30 132 -3 108 -2 108 23 118 14 5 26 16 26 25 0 12
-14 15 -73 15 -41 0 -77 -3 -80 -7z"/>
<path d="M4680 2744 c0 -9 9 -18 20 -21 19 -5 20 -14 20 -125 0 -111 -1 -120
-20 -125 -11 -3 -20 -12 -20 -19 0 -11 18 -14 75 -14 60 0 75 3 75 15 0 8 -9
15 -20 15 -19 0 -20 7 -20 126 0 117 1 126 20 131 11 3 20 12 20 19 0 11 -18
14 -75 14 -62 0 -75 -3 -75 -16z"/>
<path d="M4860 2746 c0 -8 7 -17 16 -20 13 -5 10 -13 -18 -47 -65 -79 -63 -75
-35 -111 13 -18 37 -46 52 -63 14 -16 33 -40 42 -52 15 -23 37 -28 67 -17 22
8 20 27 -5 50 -12 10 -44 46 -72 78 l-52 59 63 57 c34 32 62 63 62 69 0 7 -22
11 -60 11 -45 0 -60 -4 -60 -14z"/>
<path d="M5675 2749 c-4 -6 2 -17 14 -25 19 -14 21 -24 21 -131 0 -106 -1
-115 -20 -120 -11 -3 -20 -12 -20 -19 0 -19 249 -21 254 -1 3 6 7 27 10 45 7
40 -14 44 -38 7 -14 -21 -24 -25 -67 -25 l-50 0 3 53 3 52 45 0 c38 0 45 3 45
20 0 18 -6 20 -47 17 l-48 -4 0 46 c0 36 4 46 20 51 32 10 78 -4 85 -26 4 -10
13 -19 21 -19 10 0 14 13 14 45 l0 45 -119 0 c-75 0 -122 -4 -126 -11z"/>
<path d="M7027 2753 c-12 -12 -7 -22 13 -28 19 -6 20 -15 20 -127 0 -111 -1
-120 -20 -125 -11 -3 -20 -12 -20 -19 0 -11 18 -14 75 -14 60 0 75 3 75 15 0
8 -9 15 -20 15 -19 0 -20 7 -20 119 0 132 1 134 64 124 23 -3 38 -12 41 -24 4
-11 13 -19 21 -19 10 0 14 13 14 45 l0 45 -118 0 c-65 0 -122 -3 -125 -7z"/>
<path d="M7654 2746 c-3 -9 15 -43 40 -79 25 -36 46 -70 46 -76 0 -6 -20 -36
-45 -67 -68 -83 -67 -84 84 -84 142 0 141 0 141 66 0 42 -10 43 -38 4 -21 -28
-27 -30 -87 -30 -36 0 -65 3 -65 7 0 3 18 30 40 59 22 29 40 59 40 66 0 7 -11
30 -25 50 -14 20 -25 39 -25 42 0 4 23 6 50 6 44 0 52 -3 62 -25 21 -48 42
-26 32 34 l-7 41 -119 0 c-94 0 -120 -3 -124 -14z"/>
<path d="M5053 2503 c-7 -2 -13 -17 -13 -33 0 -40 36 -52 62 -20 30 37 -2 72
-49 53z"/>
<path d="M4378 2186 c-8 -8 -36 -72 -62 -144 -35 -95 -53 -132 -67 -135 -10
-3 -19 -12 -19 -21 0 -13 12 -16 60 -16 46 0 60 3 60 15 0 7 -7 18 -16 23 -12
7 -15 17 -10 36 6 24 10 26 60 26 50 0 54 -2 60 -26 5 -19 2 -30 -10 -39 -30
-21 -6 -35 61 -35 67 0 91 14 61 35 -9 7 -42 76 -72 154 -58 146 -72 162 -106
127z m38 -150 c6 -24 4 -26 -30 -26 -41 0 -43 6 -19 69 l17 45 13 -31 c6 -17
15 -42 19 -57z"/>
<path d="M4830 2182 c-98 -48 -108 -237 -16 -293 45 -27 130 -26 172 3 82 56
86 212 6 277 -43 37 -106 42 -162 13z m124 -54 c37 -56 27 -172 -17 -203 -31
-21 -54 -19 -82 10 -22 21 -25 33 -25 97 0 93 15 118 70 118 30 0 43 -5 54
-22z"/>
<path d="M3325 2183 c-38 -9 -55 -34 -55 -79 0 -24 -6 -46 -13 -51 -28 -17
-57 -67 -57 -98 0 -18 9 -44 21 -59 17 -22 28 -26 70 -26 28 0 60 7 74 16 21
14 27 14 52 0 37 -19 105 -25 110 -10 2 7 -17 22 -42 34 -26 12 -45 29 -45 38
0 9 16 33 36 53 20 21 33 42 30 48 -8 12 -48 14 -83 5 -25 -7 -31 -24 -9 -24
24 0 27 -17 7 -41 l-18 -23 -37 55 c-35 53 -44 91 -27 118 7 11 15 10 40 -9
37 -26 61 -20 61 14 0 20 -7 27 -37 35 -40 11 -46 12 -78 4z m8 -229 c24 -28
26 -35 14 -40 -49 -18 -87 26 -72 84 7 25 8 26 19 8 6 -11 24 -34 39 -52z"/>
<path d="M3720 2173 c0 -10 20 -45 45 -78 25 -33 45 -65 45 -71 0 -7 -21 -37
-46 -68 -67 -81 -61 -86 90 -86 138 0 136 -1 136 78 0 40 -10 41 -33 2 -17
-29 -21 -30 -88 -30 -38 0 -69 2 -69 5 0 3 18 28 40 56 22 28 40 57 40 66 0 8
-14 34 -30 59 l-31 44 53 0 c49 0 54 -3 70 -31 23 -40 34 -31 30 25 l-4 46
-124 0 c-111 0 -124 -2 -124 -17z"/>
<path d="M4040 2180 c0 -5 9 -14 20 -20 18 -10 20 -21 20 -129 0 -112 -1 -119
-21 -124 -12 -3 -19 -12 -17 -19 5 -13 117 -24 144 -14 19 7 6 36 -17 36 -18
0 -19 9 -19 120 0 120 0 121 26 130 14 6 22 14 19 20 -8 13 -155 13 -155 0z"/>
<path d="M5235 2181 c-3 -6 4 -15 15 -21 18 -10 20 -20 20 -130 0 -110 -1
-119 -20 -125 -11 -3 -20 -13 -20 -21 0 -11 23 -14 125 -14 125 0 125 0 135
26 13 33 13 74 0 74 -5 0 -17 -11 -25 -24 -13 -20 -26 -25 -71 -28 l-54 -3 0
53 0 52 50 0 c43 0 50 3 50 20 0 17 -7 20 -50 20 l-50 0 0 45 0 45 48 0 c39 0
49 -4 57 -22 19 -41 35 -33 35 16 l0 46 -119 0 c-66 0 -122 -4 -126 -9z"/>
<path d="M5114 1926 c-12 -31 0 -51 31 -51 27 0 30 3 30 30 0 25 -4 30 -28 33
-17 2 -29 -2 -33 -12z"/>
<path d="M5551 1922 c-14 -27 8 -55 40 -50 19 2 24 9 24 33 0 25 -4 31 -27 33
-18 2 -30 -3 -37 -16z"/>
<path d="M4218 1602 c-23 -25 -40 -63 -33 -70 3 -3 22 10 41 29 29 30 33 37
21 47 -11 9 -17 8 -29 -6z"/>
<path d="M5096 1579 c-15 -22 -25 -43 -22 -47 10 -10 79 64 72 77 -11 18 -19
13 -50 -30z"/>
<path d="M2753 1603 c-20 -8 -15 -33 6 -33 13 0 23 -11 31 -35 10 -31 7 -45
-31 -145 -23 -61 -39 -113 -36 -117 15 -14 36 22 57 97 13 44 26 80 29 80 4 0
17 -38 30 -85 24 -83 36 -100 66 -89 18 7 19 20 3 27 -14 5 -18 18 -64 182
-15 55 -32 106 -37 113 -10 12 -32 15 -54 5z"/>
<path d="M3456 1586 c-63 -62 -53 -270 13 -306 35 -18 86 -12 109 13 40 43 55
155 32 239 -21 73 -106 103 -154 54z m102 -20 c8 -8 17 -35 19 -60 l6 -46 -67
0 c-71 0 -71 0 -60 58 13 62 64 86 102 48z m20 -180 c-6 -66 -20 -86 -64 -86
-40 0 -50 15 -60 88 l-7 52 68 0 67 0 -4 -54z"/>
<path d="M2445 1591 c-3 -5 4 -12 15 -16 19 -6 20 -15 20 -141 0 -127 -1 -134
-20 -134 -11 0 -20 -5 -20 -10 0 -7 43 -10 123 -8 l122 3 3 43 c4 49 -11 56
-27 12 -10 -29 -12 -30 -75 -30 l-66 0 0 60 0 60 65 0 c51 0 65 3 65 15 0 12
-14 15 -65 15 l-65 0 0 55 0 55 59 0 c58 0 60 -1 66 -30 9 -43 40 -41 31 1 -3
17 -6 38 -6 45 0 11 -23 14 -109 14 -61 0 -112 -4 -116 -9z"/>
<path d="M4787 1568 c-8 -18 -34 -86 -58 -150 -33 -90 -48 -118 -61 -118 -10
0 -18 -6 -18 -13 0 -11 32 -14 108 -8 21 2 3 21 -19 21 -10 0 -19 3 -19 6 0
16 76 224 81 224 7 0 79 -198 79 -217 0 -7 -7 -13 -16 -13 -9 0 -14 -6 -12
-12 4 -12 22 -13 98 -9 25 2 25 2 4 17 -14 9 -40 66 -75 159 -30 82 -59 145
-66 145 -7 0 -19 -15 -26 -32z"/>
<path d="M2983 1499 c-12 -7 -27 -25 -32 -41 -8 -23 -7 -32 7 -46 17 -17 17
-19 0 -37 -19 -19 -23 -52 -10 -71 22 -33 92 -44 150 -23 44 15 30 30 -21 23
-23 -3 -54 -1 -69 5 -50 19 -27 71 31 71 12 0 21 7 21 15 0 8 -9 15 -19 15
-52 0 -72 48 -30 71 18 9 27 7 51 -11 40 -30 72 -17 49 19 -11 18 -99 24 -128
10z"/>
<path d="M3155 1501 c-19 -8 -19 -8 0 -19 11 -5 20 -19 21 -29 0 -10 1 -45 3
-78 2 -75 17 -96 74 -102 38 -5 48 -2 75 23 44 41 61 110 42 167 -12 34 -20
43 -42 45 -32 4 -36 -12 -12 -40 10 -10 19 -39 21 -65 6 -64 -23 -106 -70
-101 -43 4 -57 36 -57 131 0 82 -4 88 -55 68z"/>
<path d="M3686 1489 c-29 -23 -34 -54 -11 -79 14 -15 14 -18 0 -30 -23 -19
-19 -76 7 -94 26 -19 82 -21 127 -5 48 17 38 31 -18 23 -91 -12 -129 43 -51
73 44 18 52 33 17 33 -35 0 -58 21 -51 47 8 30 41 36 74 11 29 -21 50 -18 50
7 0 38 -101 48 -144 14z"/>
<path d="M3922 1494 c-43 -30 -52 -64 -52 -199 0 -115 2 -126 18 -123 13 2 18
15 20 53 l3 50 49 -3 c44 -4 53 -1 80 26 36 37 44 100 19 163 -18 46 -93 64
-137 33z m88 -34 c14 -14 20 -33 20 -68 0 -57 -24 -92 -63 -92 -52 0 -57 7
-57 81 0 59 3 70 22 83 30 21 54 20 78 -4z"/>
<path d="M4152 1500 c-34 -14 -49 -54 -30 -82 13 -19 13 -25 0 -48 -20 -35 -9
-78 24 -90 33 -13 86 -13 118 0 43 16 30 26 -34 25 -43 0 -63 4 -70 15 -17 25
-6 44 30 56 41 13 52 34 18 34 -37 0 -58 21 -47 48 12 33 34 37 68 13 36 -26
51 -27 51 -1 0 35 -71 52 -128 30z"/>
<path d="M4368 1489 c-31 -23 -53 -87 -42 -122 7 -25 43 -67 56 -67 5 0 25 -7
44 -15 36 -15 36 -15 19 -41 -23 -35 -13 -41 24 -14 51 36 33 77 -42 94 -60
14 -83 67 -52 125 20 39 41 45 75 21 35 -25 50 -25 50 0 0 42 -85 54 -132 19z"/>
<path d="M5027 1490 c-52 -41 -56 -162 -6 -202 27 -23 92 -24 110 -2 12 14 14
14 25 -1 7 -9 22 -15 35 -13 26 3 39 28 15 28 -14 0 -16 16 -16 103 l0 102
-69 3 c-56 2 -73 -1 -94 -18z m107 -16 c13 -5 16 -22 16 -79 l0 -73 -35 -12
c-47 -16 -72 -6 -85 35 -28 86 29 158 104 129z"/>
<path d="M5294 1476 c-31 -31 -34 -39 -34 -93 0 -33 -3 -95 -7 -137 l-6 -78
24 4 c21 3 24 9 27 53 l3 50 40 -3 c78 -8 119 37 119 128 0 44 -5 56 -29 81
-42 42 -92 40 -137 -5z m82 -2 c27 -7 44 -44 44 -94 0 -64 -40 -92 -107 -74
-21 6 -23 13 -23 66 0 49 4 63 25 83 26 27 29 28 61 19z"/>
<path d="M5505 1501 c-3 -6 3 -15 13 -20 17 -9 20 -23 21 -103 1 -51 6 -97 10
-101 12 -12 54 -5 58 9 2 6 -5 14 -17 17 -18 5 -20 13 -20 106 l0 101 -29 0
c-17 0 -32 -4 -36 -9z"/>
<path d="M5722 1499 c-49 -14 -74 -61 -69 -127 5 -64 28 -91 83 -99 80 -10
128 34 128 117 0 27 -6 55 -13 64 -13 15 -8 21 13 17 9 -2 26 18 26 32 0 10
-128 7 -168 -4z m68 -29 c40 -22 48 -112 12 -152 -19 -22 -75 -23 -92 -3 -7 9
-15 38 -18 65 -4 42 -1 52 21 74 28 28 47 32 77 16z"/>
<path d="M5957 1486 c-32 -30 -41 -62 -35 -128 4 -38 11 -55 29 -69 30 -23 92
-25 110 -3 12 14 14 14 25 -1 8 -10 23 -15 40 -13 33 4 46 28 15 28 -20 0 -21
5 -21 103 l0 102 -68 3 c-61 2 -72 -1 -95 -22z m107 -12 c13 -5 16 -22 16 -78
0 -68 -2 -74 -25 -84 -61 -28 -95 1 -95 80 0 69 45 105 104 82z"/>
<path d="M6242 1494 c-31 -21 -52 -66 -52 -109 0 -45 32 -79 90 -95 43 -12 44
-15 25 -62 -4 -10 -3 -18 3 -18 11 0 62 49 62 61 0 15 -30 38 -67 49 -69 23
-88 59 -63 124 15 40 46 51 77 27 32 -26 53 -27 53 -1 0 39 -84 55 -128 24z"/>
<path d="M5680 1055 c0 -12 -14 -15 -69 -15 l-70 0 -11 -55 c-6 -30 -10 -65
-8 -77 3 -20 8 -22 55 -19 61 3 93 -20 93 -69 0 -50 -30 -70 -105 -70 -65 0
-87 -14 -40 -26 14 -4 51 -4 82 -2 70 6 103 39 103 105 0 58 -41 93 -111 93
-55 0 -53 -2 -38 50 l12 38 61 -1 61 -2 3 33 c2 18 -1 32 -7 32 -6 0 -11 -7
-11 -15z"/>
<path d="M3665 1052 c-14 -10 -155 -199 -161 -217 -5 -11 10 -15 73 -17 77 -3
78 -3 81 -31 3 -22 -1 -30 -17 -34 -12 -3 -21 -11 -21 -18 0 -8 20 -13 60 -14
39 -1 60 2 60 10 0 6 -9 13 -20 16 -15 4 -20 14 -20 39 0 30 3 34 25 34 14 0
25 5 25 10 0 6 -11 10 -25 10 -24 0 -24 1 -27 107 -3 101 -10 122 -33 105z
m-5 -132 c0 -79 -3 -83 -69 -78 l-41 3 47 73 c26 39 50 72 55 72 4 0 8 -32 8
-70z"/>
<path d="M4133 1053 c-60 -12 -99 -98 -89 -196 10 -98 46 -137 126 -137 33 0
43 6 66 36 23 29 28 48 32 112 3 55 0 88 -11 114 -22 51 -72 81 -124 71z m64
-47 c25 -22 28 -31 31 -105 5 -96 -8 -134 -49 -151 -24 -10 -33 -10 -54 4 -13
9 -27 26 -29 39 -21 104 -12 190 24 219 29 24 43 23 77 -6z"/>
<path d="M4525 1053 c-60 -15 -84 -86 -43 -130 l21 -23 -22 -19 c-31 -27 -44
-77 -28 -110 16 -33 52 -51 105 -51 35 0 49 6 73 29 36 36 37 70 3 110 l-26
31 21 26 c40 50 14 134 -40 134 -10 0 -23 2 -31 4 -7 2 -22 1 -33 -1z m60 -29
c36 -14 38 -93 2 -116 -18 -12 -23 -10 -56 18 -61 51 -20 126 54 98z m-12
-156 c40 -27 47 -37 47 -65 0 -32 -27 -53 -69 -53 -51 0 -66 21 -62 82 1 15
37 58 49 58 2 0 18 -10 35 -22z"/>
<path d="M5290 953 c-44 -60 -80 -114 -80 -120 0 -9 22 -13 75 -13 l75 0 0
-34 c0 -25 -5 -35 -20 -39 -43 -11 -19 -27 40 -27 47 0 60 3 60 15 0 8 -9 15
-20 15 -16 0 -20 7 -20 35 0 31 3 35 25 35 14 0 25 5 25 10 0 6 -11 10 -25 10
l-25 0 0 110 c0 92 -3 110 -15 110 -9 0 -51 -48 -95 -107z m67 -110 c-3 -2
-28 -3 -56 -1 l-52 3 53 77 53 76 3 -75 c2 -42 1 -77 -1 -80z"/>
<path d="M3293 1034 c-41 -20 -34 -36 10 -23 81 23 117 3 117 -65 0 -54 -36
-107 -109 -160 -29 -21 -50 -43 -48 -50 2 -7 39 -11 108 -11 l104 0 3 43 c3
47 -9 55 -26 18 -12 -27 -56 -40 -107 -34 -27 3 -27 4 24 43 93 73 125 181 70
236 -24 24 -100 26 -146 3z"/>
<path d="M3855 1041 c-38 -8 -39 -25 -2 -29 l27 -3 0 -129 0 -129 -27 -3 c-14
-2 -28 -8 -30 -13 -2 -7 25 -10 72 -10 54 0 75 3 75 12 0 7 -11 13 -25 13
l-25 0 0 150 c0 165 4 156 -65 141z"/>
<path d="M4768 1043 c-16 -2 -28 -11 -28 -19 0 -9 10 -14 28 -14 l27 0 -2
-122 c-2 -68 -3 -126 -3 -130 0 -4 -10 -8 -22 -10 -12 -2 -23 -8 -25 -14 -2
-7 21 -10 67 -9 67 1 98 10 69 19 -52 16 -49 6 -49 161 0 159 5 148 -62 138z"/>
<path d="M5027 1043 c-35 -5 -30 -27 7 -31 l27 -3 -3 -127 c-3 -122 -4 -126
-26 -132 -45 -10 -17 -25 50 -27 48 -1 68 2 65 10 -2 7 -13 13 -25 15 -21 3
-22 8 -22 137 0 73 -3 140 -6 149 -6 16 -13 17 -67 9z"/>
<path d="M5799 1037 c-32 -24 -49 -74 -49 -146 0 -114 34 -171 101 -171 90 0
121 43 121 166 0 120 -30 163 -112 163 -25 0 -52 -5 -61 -12z m100 -24 c27
-23 44 -109 35 -177 -14 -103 -100 -130 -134 -42 -15 41 -12 162 5 196 22 43
58 52 94 23z"/>
<path d="M2838 953 c-22 -5 -24 -23 -3 -24 8 -1 21 -2 28 -3 8 -1 13 -28 15
-90 2 -50 8 -96 14 -103 18 -22 108 -13 108 11 0 7 -14 10 -40 8 l-40 -4 0 85
0 86 33 3 c20 2 32 8 32 18 0 12 -14 15 -65 16 -36 0 -73 -1 -82 -3z"/>
<path d="M3038 758 c-8 -21 2 -38 22 -38 19 0 34 25 24 41 -8 13 -41 11 -46
-3z"/>
</g>
</svg>
